<?xml version="1.0" encoding="UTF-8" standalone="no"?>
<!-- Created with Inkscape (http://www.inkscape.org/) -->

<svg
   width="1000"
   height="324.634"
   viewBox="0 0 264.58333 85.892746"
   version="1.1"
   id="svg5"
   xml:space="preserve"
   inkscape:version="1.2.2 (732a01da63, 2022-12-09)"
   sodipodi:docname="Caja Los Andes Logo.svg"
   xmlns:inkscape="http://www.inkscape.org/namespaces/inkscape"
   xmlns:sodipodi="http://sodipodi.sourceforge.net/DTD/sodipodi-0.dtd"
   xmlns="http://www.w3.org/2000/svg"
   xmlns:svg="http://www.w3.org/2000/svg"
   xmlns:rdf="http://www.w3.org/1999/02/22-rdf-syntax-ns#"
   xmlns:cc="http://creativecommons.org/ns#"
   xmlns:dc="http://purl.org/dc/elements/1.1/"><title
     id="title3784">Caja Los Andes</title><sodipodi:namedview
     id="namedview7"
     pagecolor="#ffffff"
     bordercolor="#666666"
     borderopacity="1.0"
     inkscape:showpageshadow="2"
     inkscape:pageopacity="0.0"
     inkscape:pagecheckerboard="0"
     inkscape:deskcolor="#d1d1d1"
     inkscape:document-units="px"
     showgrid="false"
     inkscape:zoom="0.8"
     inkscape:cx="500"
     inkscape:cy="162.5"
     inkscape:window-width="1366"
     inkscape:window-height="705"
     inkscape:window-x="-8"
     inkscape:window-y="-8"
     inkscape:window-maximized="1"
     inkscape:current-layer="layer1" /><defs
     id="defs2" /><g
     inkscape:label="Capa 1"
     inkscape:groupmode="layer"
     id="layer1"
     transform="translate(-1000.8048,-215.73284)"><g
       id="g210"
       transform="matrix(0.35277777,0,0,-0.35277777,-242.20569,431.20819)" /><g
       id="g3720"
       transform="matrix(5.8192914,0,0,5.8192914,-3769.5675,-1033.0648)"
       style="stroke-width:0.171843"><path
         d="m 223.07291,215.80103 h -0.20108 c -0.0353,0 -0.0642,0.0286 -0.0642,0.0642 0,0.28222 -3.5e-4,1.6831 -3.5e-4,1.6831 l -7.1e-4,0.0272 -7e-4,0.0226 -3.6e-4,0.002 c -0.0166,0.35031 -0.20108,0.55915 -0.49388,0.55915 -0.21132,0 -0.34185,-0.0656 -0.49742,-0.25118 l -0.0339,-0.042 -0.0511,-0.0441 -0.0557,0.0155 -0.13123,0.1076 -0.0332,0.0653 0.0145,0.0346 c 0.18838,0.27693 0.45261,0.41734 0.78493,0.41734 0.23425,0 0.43639,-0.0762 0.58455,-0.22084 0.15911,-0.1591 0.24342,-0.40005 0.24342,-0.69674 v -1.68098 z"
         style="fill:#0092c6;fill-opacity:1;fill-rule:nonzero;stroke:none;stroke-width:0.0606222"
         id="path230"
         clip-path="none"
         transform="translate(635.00005)" /><path
         d="m 220.85747,217.47249 c -0.31044,-0.68333 -0.66181,-1.45768 -0.73942,-1.63124 l -0.0628,-0.0399 -0.21731,-3.5e-4 -0.061,0.0395 c -0.11747,0.26282 -0.89217,1.9752 -1.11901,2.47544 l 0.003,0.0526 0.0476,0.0257 h 0.18768 c 0.0374,0 0.072,-0.0222 0.0871,-0.0568 l 0.25824,-0.57961 h 1.40053 l 0.25646,0.5782 c 0.0155,0.0353 0.0508,0.0582 0.0893,0.0582 h 0.20073 l 0.0476,-0.0261 0.004,-0.0526 c -0.0787,-0.17392 -0.2226,-0.49142 -0.38241,-0.84314 m -0.34502,-0.0106 h -1.14088 l 0.57256,-1.27741 z"
         style="fill:#0092c6;fill-opacity:1;fill-rule:nonzero;stroke:none;stroke-width:0.0606222"
         id="path234"
         clip-path="none"
         transform="translate(635.00005)" /><path
         d="m 226.16677,218.31563 c -0.0787,-0.17392 -0.22296,-0.49142 -0.38276,-0.84314 -0.3101,-0.68333 -0.66181,-1.45768 -0.73907,-1.63124 l -0.0628,-0.0399 -0.21766,-3.5e-4 -0.061,0.0395 c -0.11712,0.26282 -0.89218,1.9752 -1.11937,2.4758 l 0.004,0.0522 0.0476,0.0257 h 0.18768 c 0.0374,0 0.072,-0.0222 0.0871,-0.0568 l 0.25824,-0.57961 h 1.40017 l 0.25682,0.5782 c 0.0159,0.0353 0.0508,0.0582 0.0893,0.0582 h 0.20073 l 0.0476,-0.0257 z m -0.72743,-0.85372 h -1.14123 l 0.57291,-1.27706 z"
         style="fill:#0092c6;fill-opacity:1;fill-rule:nonzero;stroke:none;stroke-width:0.0606222"
         id="path238"
         clip-path="none"
         transform="translate(635.00005)" /><path
         d="m 218.28924,217.95297 -0.0367,-0.049 -0.0501,-0.067 -0.0681,-0.0233 -0.0363,0.0212 c -0.25541,0.23036 -0.48083,0.3242 -0.77893,0.3242 -0.55774,0 -0.99483,-0.46672 -0.99483,-1.06186 v -0.007 c 0,-0.60113 0.42792,-1.05445 0.99483,-1.05445 0.27552,0 0.50024,0.0871 0.72955,0.28222 l 10e-4,7.1e-4 0.007,0.006 0.0483,0.0303 0.0713,-0.0236 0.11677,-0.15699 0.006,-0.0568 -0.0473,-0.0554 -0.003,-0.002 c -0.27517,-0.2293 -0.55245,-0.32738 -0.9264,-0.32738 -0.74859,0 -1.33526,0.59937 -1.33526,1.3649 v 0.007 c 0,0.77435 0.56903,1.35819 1.32397,1.35819 0.38629,0 0.68863,-0.12065 0.98037,-0.39158 l 0.0247,-0.0325 -0.0106,-0.0621 z"
         style="fill:#0092c6;fill-opacity:1;fill-rule:nonzero;stroke:none;stroke-width:0.0606222"
         id="path242"
         clip-path="none"
         transform="translate(635.00005)" /><path
         d="m 217.55899,222.89786 h -0.3997 c -0.0395,0 -0.0755,0.0233 -0.0917,0.0596 -0.14076,0.31785 -0.7934,1.78999 -1.02129,2.30364 l -0.0529,0.1203 0.006,0.0727 0.0639,0.0346 h 0.5013 c 0.0377,0 0.072,-0.0226 0.0868,-0.0568 l 0.70803,-1.63159 0.7186,1.63159 c 0.0152,0.0342 0.049,0.0568 0.0871,0.0568 l 0.48754,0.002 h 3.5e-4 l 0.0639,-0.0342 0.006,-0.073 c -0.18803,-0.42616 -0.9211,-2.08527 -1.07104,-2.42535 -0.0159,-0.0363 -0.0519,-0.06 -0.0921,-0.06"
         style="fill:#0092c6;fill-opacity:1;fill-rule:nonzero;stroke:none;stroke-width:0.0606222"
         id="path246"
         clip-path="none"
         transform="translate(635.00005)" /><path
         d="m 226.57952,222.89786 h -1.73955 c -0.0519,0 -0.0945,0.042 -0.0945,0.0938 3.5e-4,0.20849 10e-4,0.8315 0,1.20262 10e-4,0.43074 7e-4,0.93768 3.5e-4,1.20156 l 0.0275,0.067 0.0667,0.0275 h 1.74131 c 0.0519,0 0.0938,-0.042 0.0938,-0.0938 v -0.34325 c 0,-0.0526 -0.0423,-0.0952 -0.0952,-0.0952 h -1.25412 v -0.50694 c 0.11218,0 0.79586,3.5e-4 1.02905,3.5e-4 0.0511,0 0.0931,-0.042 0.0931,-0.0942 v -0.34396 c 0,-0.0522 -0.0423,-0.0942 -0.0945,-0.0942 h -1.02164 v -0.4893 h 1.24777 c 0.0529,0 0.0956,-0.043 0.0956,-0.0956 v -0.34079 c 0,-0.0526 -0.0427,-0.0956 -0.0956,-0.0956"
         style="fill:#0092c6;fill-opacity:1;fill-rule:nonzero;stroke:none;stroke-width:0.0606222"
         id="path250"
         clip-path="none"
         transform="translate(635.00005)" /><path
         d="m 228.23758,223.92021 c -0.46073,-0.11783 -0.55421,-0.17321 -0.55421,-0.32949 v -0.007 c 0,-0.12982 0.12629,-0.21379 0.32173,-0.21379 0.18239,0 0.38594,0.073 0.62336,0.22367 l 0.0377,0.0109 0.0723,-0.0455 c 0.0194,-0.0261 0.1016,-0.1464 0.16122,-0.23424 0.0247,-0.0356 0.0441,-0.0646 0.0522,-0.0762 0.0198,-0.0286 0.0529,-0.0765 3.6e-4,-0.11748 -0.27094,-0.20037 -0.58702,-0.30162 -0.93945,-0.30162 -0.55033,0 -0.93415,0.33161 -0.93415,0.8068 v 0.007 c 0,0.54857 0.38205,0.68933 0.88088,0.81703 0.44556,0.11395 0.51753,0.18733 0.51753,0.31856 v 0.007 c 0,0.14534 -0.13618,0.23213 -0.36336,0.23213 -0.23637,0 -0.46885,-0.0885 -0.71085,-0.27058 l -0.006,-0.004 c -0.0543,-0.0402 -0.0991,-0.0349 -0.13723,0.0159 -0.0194,0.0258 -0.10371,0.1397 -0.16474,0.22155 l -0.0755,0.10724 -0.0138,0.0487 c 0.002,0.0173 0.0293,0.0462 0.0815,0.0875 l 0.0504,0.0374 c 0.27482,0.19403 0.60854,0.29669 0.9645,0.29669 0.6043,0 0.97931,-0.3175 0.97931,-0.82903 v -0.007 c 0,-0.48366 -0.33761,-0.67098 -0.8442,-0.80292"
         style="fill:#0092c6;fill-opacity:1;fill-rule:nonzero;stroke:none;stroke-width:0.0606222"
         id="path254"
         clip-path="none"
         transform="translate(635.00005)" /><path
         d="m 221.41133,222.89786 h -0.39758 c -0.0536,0 -0.097,0.0437 -0.097,0.097 v 1.44992 l -1.14935,-1.50918 -0.0752,-0.0377 h -0.40075 c -0.0529,0 -0.0956,0.0427 -0.0956,0.0949 v 2.40347 c 0,0.0519 0.0423,0.0942 0.0949,0.0942 l 0.39794,-7e-4 c 0.0522,0 0.0945,-0.0423 0.0945,-0.0942 0,-0.33867 3.5e-4,-1.28835 3.5e-4,-1.50284 l 1.1864,1.56104 0.0748,0.037 h 0.36725 c 0.0519,0 0.0938,-0.042 0.0938,-0.0935 v -2.40489 c 0,-0.0522 -0.0427,-0.0945 -0.0945,-0.0945"
         style="fill:#0092c6;fill-opacity:1;fill-rule:nonzero;stroke:none;stroke-width:0.0606222"
         id="path258"
         clip-path="none"
         transform="translate(635.00005)" /><path
         d="m 223.09055,222.8975 h -0.92146 l -0.0663,0.0275 -0.0272,0.0656 c 7e-4,0.0921 7e-4,0.24554 0,0.34749 v 1.70921 c 7e-4,0.0833 7e-4,0.19932 7e-4,0.28998 l 3.6e-4,0.0582 c 0,0.0526 0.0423,0.0956 0.0952,0.0956 l 0.91863,-7e-4 c 0.77117,0 1.30986,-0.53305 1.30986,-1.29646 v -0.008 c 0,-0.36089 -0.12417,-0.68651 -0.3496,-0.91758 -0.23707,-0.24271 -0.56938,-0.37112 -0.96026,-0.37112 m 0,2.05281 h -0.42016 v -1.51306 h 0.42016 c 0.43215,0 0.69003,0.28293 0.69003,0.75671 v 0.007 c 0,0.4692 -0.25788,0.7493 -0.69003,0.7493"
         style="fill:#0092c6;fill-opacity:1;fill-rule:nonzero;stroke:none;stroke-width:0.0606222"
         id="path262"
         clip-path="none"
         transform="translate(635.00005)" /><path
         d="m 218.16224,221.38973 h -1.20438 v -1.94416 c 0,-0.0536 -0.0438,-0.097 -0.0974,-0.097 h -0.41028 c -0.0536,0 -0.0974,0.0437 -0.0974,0.0977 l 7.1e-4,2.39889 c 0,0.0536 0.0437,0.097 0.0977,0.097 h 1.71132 c 0.0533,0 0.0963,-0.0434 0.0963,-0.0967 v -0.35878 c 0,-0.0536 -0.043,-0.097 -0.0967,-0.097"
         style="fill:#0092c6;fill-opacity:1;fill-rule:nonzero;stroke:none;stroke-width:0.0606222"
         id="path266"
         clip-path="none"
         transform="translate(635.00005)" /><path
         d="m 219.87322,219.28012 c -0.78846,0 -1.40582,0.59972 -1.40582,1.36525 v 0.007 c 0,0.77399 0.60078,1.35784 1.39841,1.35784 0.78846,0 1.40653,-0.59972 1.40653,-1.36525 v -0.007 c 0,-0.77399 -0.60149,-1.35784 -1.39912,-1.35784 m -0.7747,1.35784 c 0,-0.45438 0.32985,-0.79728 0.76729,-0.79728 0.43462,0 0.7747,0.35384 0.7747,0.80469 v 0.007 c 0,0.45438 -0.32985,0.79728 -0.76729,0.79728 -0.44168,0 -0.7747,-0.34608 -0.7747,-0.80469 z"
         style="fill:#0092c6;fill-opacity:1;fill-rule:nonzero;stroke:none;stroke-width:0.0606222"
         id="path270"
         clip-path="none"
         transform="translate(635.00005)" /><path
         d="m 222.76599,220.37161 c -0.46108,-0.11818 -0.55421,-0.17357 -0.55421,-0.32985 v -0.007 c 0,-0.13018 0.12629,-0.21414 0.32208,-0.21414 0.18168,0 0.38559,0.073 0.62336,0.22366 l 0.0374,0.0109 0.0723,-0.0455 c 0.0176,-0.0236 0.0879,-0.12629 0.14464,-0.2092 0.0317,-0.0466 0.0589,-0.0864 0.0691,-0.10054 0.0194,-0.0293 0.0526,-0.0773 0,-0.11783 -0.27094,-0.20037 -0.58702,-0.30197 -0.93945,-0.30197 -0.54998,0 -0.93415,0.33161 -0.93415,0.80715 v 0.007 c 0,0.54892 0.38205,0.68968 0.88123,0.81668 0.44521,0.1143 0.51718,0.18767 0.51718,0.31891 v 0.008 c 0,0.14499 -0.13582,0.23178 -0.36336,0.23178 -0.23601,0 -0.46849,-0.0889 -0.71085,-0.27094 l -0.006,-0.004 c -0.0543,-0.0402 -0.0995,-0.0342 -0.13723,0.0159 -0.0194,0.0258 -0.10371,0.14005 -0.16474,0.2219 l -0.0755,0.10689 -0.0138,0.049 0.0815,0.0868 0.0162,0.012 0.0346,0.0261 c 0.27482,0.19403 0.60855,0.29669 0.96415,0.29669 0.6043,0 0.97931,-0.31786 0.97931,-0.82903 v -0.007 c 0,-0.48331 -0.33761,-0.67028 -0.8442,-0.80257"
         style="fill:#0092c6;fill-opacity:1;fill-rule:nonzero;stroke:none;stroke-width:0.0606222"
         id="path274"
         clip-path="none"
         transform="translate(635.00005)" /><path
         d="m 216.42305,226.97703 c -0.23354,0 -0.3683,0.14358 -0.3683,0.31821 0,0.36477 0.53058,0.33125 0.53058,0.60607 0,0.13053 -0.11042,0.17886 -0.23213,0.17886 -0.11007,0 -0.20249,-0.0409 -0.26458,-0.0833 l -0.0684,0.127 c 0.0794,0.0536 0.19438,0.0956 0.33443,0.0956 0.23566,0 0.40323,-0.12488 0.40323,-0.33126 0,-0.37923 -0.53129,-0.35171 -0.53129,-0.60924 0,-0.11995 0.10054,-0.16228 0.20214,-0.16228 0.0921,0 0.18592,0.024 0.26882,0.0684 v -0.14923 c -0.0586,-0.0293 -0.16016,-0.0589 -0.27446,-0.0589"
         style="fill:#d7d8df;fill-opacity:1;fill-rule:nonzero;stroke:none;stroke-width:0.0606222"
         id="path278"
         clip-path="none"
         transform="translate(635.00005)" /><path
         d="m 217.55194,228.08016 c -0.25576,0 -0.4251,-0.18838 -0.4251,-0.48119 0,-0.29069 0.16934,-0.48225 0.4251,-0.48225 0.26952,0 0.42369,0.20462 0.42369,0.48225 0,0.29281 -0.16898,0.48119 -0.42369,0.48119 m 0,-1.10349 c -0.34537,0 -0.59831,0.254 -0.59831,0.6223 0,0.37606 0.2547,0.62054 0.59831,0.62054 0.33937,0 0.59725,-0.24236 0.59725,-0.62054 0,-0.3623 -0.24694,-0.6223 -0.59725,-0.6223"
         style="fill:#d7d8df;fill-opacity:1;fill-rule:nonzero;stroke:none;stroke-width:0.0606222"
         id="path282"
         clip-path="none"
         transform="translate(635.00005)" /><path
         d="m 219.5663,226.98796 h -0.15205 l -0.30797,0.48613 c -0.0462,0.0741 -0.0787,0.12876 -0.10725,0.17639 h -0.004 c -0.0293,-0.0494 -0.06,-0.0952 -0.11007,-0.16934 l -0.33161,-0.49318 h -0.15134 v 1.2132 h 0.16404 v -0.75247 c 0,-0.0522 0,-0.13088 -0.003,-0.18451 h 0.003 c 0.024,0.0459 0.0572,0.0938 0.0832,0.13089 l 0.30692,0.45473 h 0.0811 l 0.2794,-0.44556 c 0.0229,-0.0349 0.0632,-0.0977 0.0871,-0.14358 h 0.002 c -0.002,0.0607 -0.002,0.13441 -0.002,0.19156 v 0.74894 h 0.16192 z"
         style="fill:#d7d8df;fill-opacity:1;fill-rule:nonzero;stroke:none;stroke-width:0.0606222"
         id="path286"
         clip-path="none"
         transform="translate(635.00005)" /><path
         d="m 220.42002,228.08016 c -0.25682,0 -0.4258,-0.18838 -0.4258,-0.48119 0,-0.29069 0.16898,-0.48225 0.4258,-0.48225 0.26811,0 0.42263,0.20462 0.42263,0.48225 0,0.29281 -0.16934,0.48119 -0.42263,0.48119 m 0,-1.10349 c -0.34643,0 -0.59937,0.254 -0.59937,0.6223 0,0.37606 0.25471,0.62054 0.59937,0.62054 0.33796,0 0.59584,-0.24236 0.59584,-0.62054 0,-0.3623 -0.24659,-0.6223 -0.59584,-0.6223"
         style="fill:#d7d8df;fill-opacity:1;fill-rule:nonzero;stroke:none;stroke-width:0.0606222"
         id="path290"
         clip-path="none"
         transform="translate(635.00005)" /><path
         d="m 221.61241,226.97703 c -0.23354,0 -0.36865,0.14358 -0.36865,0.31821 0,0.36477 0.53128,0.33125 0.53128,0.60607 0,0.13053 -0.11077,0.17886 -0.23248,0.17886 -0.11077,0 -0.20285,-0.0409 -0.26494,-0.0833 l -0.0681,0.127 c 0.0794,0.0536 0.19508,0.0956 0.33443,0.0956 0.23671,0 0.40358,-0.12488 0.40358,-0.33126 0,-0.37923 -0.53199,-0.35171 -0.53199,-0.60924 0,-0.11995 0.10125,-0.16228 0.20214,-0.16228 0.0924,0 0.18592,0.024 0.26952,0.0684 v -0.14923 c -0.0596,-0.0293 -0.16016,-0.0589 -0.27481,-0.0589"
         style="fill:#d7d8df;fill-opacity:1;fill-rule:nonzero;stroke:none;stroke-width:0.0606222"
         id="path294"
         clip-path="none"
         transform="translate(635.00005)" /><path
         d="m 223.16816,226.97667 c -0.36795,0 -0.61454,0.28046 -0.61454,0.63182 0,0.3556 0.21696,0.61066 0.58949,0.61066 0.11395,0 0.23319,-0.0236 0.35525,-0.0875 l -0.0462,-0.13123 c -0.0854,0.0459 -0.17639,0.0797 -0.2914,0.0797 -0.26705,0 -0.43427,-0.19544 -0.43427,-0.47872 0,-0.26564 0.16934,-0.48472 0.44556,-0.48472 0.12171,0 0.21555,0.0311 0.30198,0.0773 v -0.15275 c -0.0639,-0.0349 -0.17498,-0.0646 -0.30586,-0.0646"
         style="fill:#d7d8df;fill-opacity:1;fill-rule:nonzero;stroke:none;stroke-width:0.0606222"
         id="path298"
         clip-path="none"
         transform="translate(635.00005)" /><path
         d="m 224.27588,226.97667 c -0.3683,0 -0.61489,0.28046 -0.61489,0.63182 0,0.3556 0.21731,0.61066 0.58914,0.61066 0.115,0 0.23389,-0.0236 0.35595,-0.0875 l -0.0466,-0.13123 c -0.084,0.0459 -0.17709,0.0797 -0.29139,0.0797 -0.26635,0 -0.43356,-0.19544 -0.43356,-0.47872 0,-0.26564 0.16862,-0.48472 0.44485,-0.48472 0.12135,0 0.21625,0.0311 0.30268,0.0773 v -0.15275 c -0.0646,-0.0349 -0.17462,-0.0646 -0.30621,-0.0646"
         style="fill:#d7d8df;fill-opacity:1;fill-rule:nonzero;stroke:none;stroke-width:0.0606222"
         id="path302"
         clip-path="none"
         transform="translate(635.00005)" /><path
         d="m 224.95674,226.89765 h -0.16192 v 1.30351 h 0.16192 v -0.63147 c 0.0755,-0.0667 0.15981,-0.11783 0.24836,-0.11783 0.11959,0 0.15098,0.096 0.15098,0.21908 v 0.53022 h 0.16193 v -0.58349 c 0,-0.2286 -0.12912,-0.30974 -0.26494,-0.30974 -0.11218,0 -0.21025,0.054 -0.29633,0.12735 z"
         style="fill:#d7d8df;fill-opacity:1;fill-rule:nonzero;stroke:none;stroke-width:0.0606222"
         id="path306"
         clip-path="none"
         transform="translate(635.00005)" /><path
         d="m 226.34316,226.97667 c -0.36795,0 -0.61454,0.28046 -0.61454,0.63182 0,0.3556 0.21767,0.61066 0.58985,0.61066 0.11324,0 0.23318,-0.0236 0.35454,-0.0875 l -0.0459,-0.13123 c -0.0847,0.0459 -0.17675,0.0797 -0.29069,0.0797 -0.26706,0 -0.43462,-0.19544 -0.43462,-0.47872 0,-0.26564 0.16898,-0.48472 0.44591,-0.48472 0.121,0 0.21448,0.0311 0.30127,0.0773 v -0.15275 c -0.0646,-0.0349 -0.17427,-0.0646 -0.30586,-0.0646"
         style="fill:#d7d8df;fill-opacity:1;fill-rule:nonzero;stroke:none;stroke-width:0.0606222"
         id="path310"
         clip-path="none"
         transform="translate(635.00005)" /><path
         d="m 213.14574,223.32013 v -3.5e-4 h -1.46791 v 3.5e-4 c -0.19791,0.001 -0.35842,0.16228 -0.35842,0.36019 v 1.46826 c 0,0.19826 0.16051,0.35912 0.35842,0.36054 v 0 h 1.46791 v 0 c 0.19826,-0.001 0.35807,-0.16228 0.35807,-0.36054 v -1.46826 c 0,-0.19791 -0.15981,-0.35878 -0.35807,-0.36019"
         style="fill:#e2c330;fill-opacity:1;fill-rule:nonzero;stroke:none;stroke-width:0.0606222"
         id="path314"
         clip-path="none"
         transform="translate(635.00005)" /><path
         d="m 845.03077,223.32084 h -2.58057 v 0 -0.002 c -0.96344,0 -1.85526,-0.39864 -2.46733,-1.02235 -0.61242,-0.62336 -4.35433,-6.33166 -4.35433,-6.33166 l -7.1e-4,3.5e-4 c -0.0667,-0.0875 -0.1718,-0.14393 -0.28998,-0.14393 h -1.82915 c -0.13089,0 -0.24519,0.0691 -0.31045,0.17216 -0.23707,0.31855 -4.30989,5.79261 -4.90432,6.39797 -0.61242,0.62371 -1.50389,1.02412 -2.46768,1.02412 v 3.5e-4 c -1.51624,0 -2.74567,-1.22943 -2.74567,-2.74567 0,-1.40758 1.05869,-2.56716 2.42323,-2.72697 0.17886,-0.0212 0.31786,-0.1711 0.32244,-0.35454 v -1.48343 c -10e-4,-0.20038 -0.16369,-0.36266 -0.36371,-0.36372 -2.55764,0.18662 -4.57447,2.31987 -4.57447,4.92478 0,2.72732 2.21086,4.93854 4.93818,4.93854 1.56775,0 3.0914,-0.65899 4.01497,-1.66229 0.78634,-0.85372 3.55176,-4.54307 4.35892,-5.62434 0.0497,-0.0635 0.12382,-0.14323 0.20708,-0.14323 0.0875,0 0.16545,0.0829 0.21484,0.15346 0.69674,1.07985 3.03107,4.66937 3.81318,5.51921 0.92145,1.00118 2.44051,1.65911 4.00473,1.66194 v 3.5e-4 l 2.5908,-3.5e-4 c 0.20214,0 0.36618,-0.16263 0.36618,-0.36478 v -3.5e-4 -1.45803 c 0,-0.20249 -0.16404,-0.36583 -0.36618,-0.36583"
         style="fill:#0092c6;fill-opacity:1;fill-rule:nonzero;stroke:none;stroke-width:0.0606222"
         id="path318"
         clip-path="none" /></g></g><metadata
     id="metadata3780"><rdf:RDF><cc:Work
         rdf:about=""><dc:title>Caja Los Andes</dc:title><dc:subject><rdf:Bag><rdf:li>Caja Los Andes</rdf:li><rdf:li>CCHC</rdf:li><rdf:li>Caja de Compensación de Asignación Familiar</rdf:li><rdf:li>Logo</rdf:li><rdf:li>Logotipo</rdf:li><rdf:li>SVG</rdf:li><rdf:li>Vector</rdf:li><rdf:li>Transparente</rdf:li><rdf:li>HQ</rdf:li></rdf:Bag></dc:subject></cc:Work></rdf:RDF></metadata></svg>
